name processed_emg_signals						
nRows=51						
nColumns=7						
 						
endheader						
time	LGLTMED	LRF	LADDLONG	LST	LTA	LGM
0	0.057574016	0.079652237	0.008481498	0.009027226	0.019777	0.073743621
0.001	0.063383027	0.083739704	0.004988136	0.010327593	0.008656001	0.07833823
0.002	0.069188826	0.08781848	0.001515164	0.011621231	0.036961227	0.082940094
0.003	0.074987555	0.091886129	0.001935284	0.012907368	0.065119545	0.087545788
0.004	0.080775342	0.095940244	0.005361098	0.014185246	0.093111972	0.092151865
0.005	0.086548308	0.099978449	0.008760202	0.01545412	0.120919696	0.096754861
0.006	0.092302567	0.103998406	0.012130551	0.016713262	0.148524115	0.101351298
0.007	0.098034231	0.107997816	0.015470136	0.017961958	0.175906854	0.105937696
0.008	0.103739422	0.111974427	0.018776989	0.019199512	0.203049801	0.110510569
0.009	0.109414268	0.115926035	0.02204918	0.020425247	0.229935128	0.115066439
0.01	0.115054914	0.119850491	0.025284827	0.021638505	0.256545322	0.119601836
0.011	0.120657522	0.123745703	0.028482094	0.02283865	0.282863207	0.124113305
0.012	0.126218282	0.12760964	0.031639195	0.024025067	0.30887197	0.128597409
0.013	0.131733413	0.131440337	0.034754393	0.025197163	0.334555186	0.13305074
0.014	0.137199167	0.135235898	0.037826011	0.026354369	0.359896837	0.137469917
0.015	0.142611836	0.138994497	0.040852422	0.027496141	0.384881341	0.141851595
0.016	0.147967758	0.142714386	0.043832063	0.02862196	0.409493565	0.146192469
0.017	0.153263317	0.146393894	0.046763429	0.029731331	0.433718851	0.150489279
0.018	0.158494953	0.150031432	0.049645079	0.030823789	0.457543035	0.154738816
0.019	0.163659163	0.153625494	0.052475633	0.031898893	0.480952461	0.158937922
0.02	0.168752507	0.157174661	0.055253781	0.032956231	0.503934001	0.163083501
0.021	0.173771611	0.160677602	0.057978278	0.033995418	0.526475072	0.16717252
0.022	0.178713173	0.164133076	0.060647948	0.035016097	0.548563648	0.171202013
0.023	0.183573967	0.167539934	0.063261686	0.036017942	0.570188276	0.175169086
0.024	0.188350846	0.17089712	0.065818455	0.037000652	0.591338087	0.17907092
0.025	0.193040746	0.174203671	0.068317293	0.037963957	0.61200281	0.182904778
0.026	0.19764069	0.177458722	0.070757309	0.038907615	0.632172778	0.186668006
0.027	0.20214779	0.180661502	0.073137686	0.039831413	0.651838944	0.190358038
0.028	0.206559256	0.183811334	0.075457682	0.040735167	0.670992882	0.193972397
0.029	0.210872389	0.18690764	0.077716627	0.041618719	0.6896268	0.197508703
0.03	0.215084596	0.189949937	0.079913926	0.042481941	0.70773354	0.200964673
0.031	0.219193383	0.192937836	0.082049061	0.043324732	0.725306589	0.204338122
0.032	0.223196363	0.195871043	0.084121586	0.044147018	0.742340077	0.207626973
0.033	0.227091256	0.198749359	0.086131131	0.044948751	0.758828783	0.210829252
0.034	0.230875894	0.201572675	0.0880774	0.04572991	0.774768133	0.213943093
0.035	0.23454822	0.204340975	0.089960171	0.0464905	0.790154203	0.216966744
0.036	0.238106289	0.207054332	0.091779295	0.047230547	0.804983717	0.219898563
0.037	0.241548277	0.209712905	0.093534696	0.047950103	0.819254042	0.222737025
0.038	0.244872471	0.212316941	0.095226372	0.048649245	0.832963189	0.225480721
0.039	0.248077281	0.214866767	0.096854389	0.049328069	0.846109806	0.228128359
0.04	0.251161234	0.217362795	0.098418887	0.049986693	0.858693172	0.230678768
0.041	0.254122978	0.219805512	0.099920073	0.050625254	0.870713194	0.233130897
0.042	0.256961282	0.222195483	0.101358224	0.051243911	0.882170394	0.235483814
0.043	0.259675037	0.224533347	0.102733684	0.051842839	0.893065908	0.237736714
0.044	0.262263253	0.22681981	0.104046863	0.052422229	0.903401471	0.239888909
0.045	0.264725065	0.229055649	0.105298236	0.05298229	0.913179408	0.241939838
0.046	0.267059727	0.231241703	0.106488342	0.053523244	0.922402627	0.24388906
0.047	0.269266617	0.233378873	0.10761778	0.054045328	0.931074603	0.245736259
0.048	0.271345231	0.235468119	0.108687213	0.054548791	0.939199369	0.247481238
0.049	0.273295188	0.237510454	0.10969736	0.05503389	0.946781501	0.249123924
0.05	0.275116226	0.239506944	0.110648999	0.055500897	0.953826104	0.250664364
